<?xml version='1.0' encoding='utf-8'?>
<mxGraphModel dx="846" dy="900" grid="1" gridSize="10" guides="1" tooltips="1" connect="1" arrows="1" fold="1" page="1" pageScale="1" pageWidth="1150" pageHeight="1150" math="0" shadow="0"><!--Created by the Sustainable Energy Systems Analysis Group--><root><mxCell id="0" /><mxCell id="1" parent="0" /><mxCell id="grinding_mill" value="grinding_mill" style="shape=mxgraph.pid.crushers_grinding.crusher_(hammer);fillColor=white;verticalLabelPosition=bottom;labelPosition=center;align=center;verticalAlign=top;" vertex="1" parent="1"><mxGeometry x="600.0000000000001" y="-767.8571428571427" width="150" height="80" relative="0" as="geometry" /></mxCell><mxCell id="mixing_tank" value="mixing_tank" style="shape=mxgraph.pid.vessels.jacketed_mixing_vessel;fillColor=white;verticalLabelPosition=bottom;labelPosition=center;align=center;verticalAlign=top;" vertex="1" parent="1"><mxGeometry x="600.0000000000001" y="-517.8571428571427" width="150" height="200" relative="0" as="geometry" /></mxCell><mxCell id="slurry_mix" value="slurry_mix" style="shape=mxgraph.pid.vessels.jacketed_mixing_vessel;fillColor=white;verticalLabelPosition=bottom;labelPosition=center;align=center;verticalAlign=top;" vertex="1" parent="1"><mxGeometry x="900.0000000000001" y="-517.8571428571427" width="150" height="200" relative="0" as="geometry" /></mxCell><mxCell id="liquefaction_hx" value="liquefaction_hx" style="shape=mxgraph.pid.heat_exchangers.heater;fillColor=white;verticalLabelPosition=bottom;labelPosition=center;align=center;verticalAlign=top;" vertex="1" parent="1"><mxGeometry x="1200.0" y="-517.8571428571425" width="60" height="60" relative="0" as="geometry" /></mxCell><mxCell id="liquefaction_tank" value="liquefaction_tank" style="shape=mxgraph.pid.vessels.jacketed_mixing_vessel;fillColor=white;verticalLabelPosition=bottom;labelPosition=center;align=center;verticalAlign=top;" vertex="1" parent="1"><mxGeometry x="1500.0" y="-517.8571428571425" width="150" height="200" relative="0" as="geometry" /></mxCell><mxCell id="cooling_tank" value="cooling_tank" style="shape=mxgraph.pid.vessels.tank_(floating_roof);fillColor=white;verticalLabelPosition=bottom;labelPosition=center;align=center;verticalAlign=top;" vertex="1" parent="1"><mxGeometry x="1800.0" y="-517.8571428571425" width="160" height="200" relative="0" as="geometry" /></mxCell><mxCell id="saccharification_tank" value="saccharification_tank" style="shape=mxgraph.pid.vessels.jacketed_mixing_vessel;fillColor=white;verticalLabelPosition=bottom;labelPosition=center;align=center;verticalAlign=top;" vertex="1" parent="1"><mxGeometry x="599.9999999999999" y="232.14285714285728" width="150" height="200" relative="0" as="geometry" /></mxCell><mxCell id="fermentation_tank" value="fermentation_tank" style="shape=mxgraph.pid.vessels.jacketed_mixing_vessel;fillColor=white;verticalLabelPosition=bottom;labelPosition=center;align=center;verticalAlign=top;" vertex="1" parent="1"><mxGeometry x="599.9999999999999" y="482.14285714285734" width="150" height="200" relative="0" as="geometry" /></mxCell><mxCell id="fermentation_splitter" value="fermentation_splitter" style="shape=mxgraph.pid.filters.filter;fillColor=white;verticalLabelPosition=bottom;labelPosition=center;align=center;verticalAlign=top;" vertex="1" parent="1"><mxGeometry x="899.9999999999999" y="482.14285714285734" width="30" height="30" relative="0" as="geometry" /></mxCell><mxCell id="degasser" value="degasser" style="shape=mxgraph.pid.filters.filter;fillColor=white;verticalLabelPosition=bottom;labelPosition=center;align=center;verticalAlign=top;" vertex="1" parent="1"><mxGeometry x="1199.9999999999998" y="482.1428571428574" width="30" height="30" relative="0" as="geometry" /></mxCell><mxCell id="beer_column" value="beer_column" style="shape=mxgraph.pid.vessels.tower_with_packing;fillColor=white;verticalLabelPosition=bottom;labelPosition=center;align=center;verticalAlign=top;" vertex="1" parent="1"><mxGeometry x="1500.0" y="482.14285714285745" width="80" height="220" relative="0" as="geometry" /></mxCell><mxCell id="centrifuge" value="centrifuge" style="shape=mxgraph.pid.centrifuges.centrifuge_(solid_shell);fillColor=white;verticalLabelPosition=bottom;labelPosition=center;align=center;verticalAlign=top;" vertex="1" parent="1"><mxGeometry x="1800.0" y="138.39285714285748" width="100" height="174" relative="0" as="geometry" /></mxCell><mxCell id="thin_stillage" value="thin_stillage" style="shape=mxgraph.pid.vessels.jacketed_mixing_vessel;fillColor=white;verticalLabelPosition=bottom;labelPosition=center;align=center;verticalAlign=top;" vertex="1" parent="1"><mxGeometry x="2100.0" y="-49.10714285714248" width="150" height="200" relative="0" as="geometry" /></mxCell><mxCell id="evaporator" value="evaporator" style="shape=mxgraph.pid.filters.filter;fillColor=white;verticalLabelPosition=bottom;labelPosition=center;align=center;verticalAlign=top;" vertex="1" parent="1"><mxGeometry x="2400.0" y="-49.10714285714243" width="30" height="30" relative="0" as="geometry" /></mxCell><mxCell id="dryer" value="dryer" style="shape=mxgraph.pid.filters.filter;fillColor=white;verticalLabelPosition=bottom;labelPosition=center;align=center;verticalAlign=top;" vertex="1" parent="1"><mxGeometry x="2100.0" y="325.89285714285757" width="30" height="30" relative="0" as="geometry" /></mxCell><mxCell id="ddgs_mixer" value="ddgs_mixer" style="shape=mxgraph.pid.mixers.in-line_static_mixer;fillColor=white;verticalLabelPosition=bottom;labelPosition=center;align=center;verticalAlign=top;" vertex="1" parent="1"><mxGeometry x="2400.0" y="200.89285714285757" width="70" height="20" relative="0" as="geometry" /></mxCell><mxCell id="rectifier_mixer" value="rectifier_mixer" style="shape=mxgraph.pid.mixers.in-line_static_mixer;fillColor=white;verticalLabelPosition=bottom;labelPosition=center;align=center;verticalAlign=top;" vertex="1" parent="1"><mxGeometry x="1799.9999999999998" y="825.8928571428575" width="70" height="20" relative="0" as="geometry" /></mxCell><mxCell id="rectifier" value="rectifier" style="shape=mxgraph.pid.vessels.tower_with_packing;fillColor=white;verticalLabelPosition=bottom;labelPosition=center;align=center;verticalAlign=top;" vertex="1" parent="1"><mxGeometry x="2099.9999999999995" y="825.8928571428576" width="80" height="220" relative="0" as="geometry" /></mxCell><mxCell id="stripping" value="stripping" style="shape=mxgraph.pid.vessels.tower_with_packing;fillColor=white;verticalLabelPosition=bottom;labelPosition=center;align=center;verticalAlign=top;" vertex="1" parent="1"><mxGeometry x="2399.9999999999995" y="700.8928571428576" width="80" height="220" relative="0" as="geometry" /></mxCell><mxCell id="co2_scrubber_mixer" value="co2_scrubber_mixer" style="shape=mxgraph.pid.mixers.in-line_static_mixer;fillColor=white;verticalLabelPosition=bottom;labelPosition=center;align=center;verticalAlign=top;" vertex="1" parent="1"><mxGeometry x="599.9999999999998" y="857.1428571428573" width="70" height="20" relative="0" as="geometry" /></mxCell><mxCell id="co2_scrubber" value="co2_scrubber" style="shape=mxgraph.pid.filters.filter;fillColor=white;verticalLabelPosition=bottom;labelPosition=center;align=center;verticalAlign=top;" vertex="1" parent="1"><mxGeometry x="899.9999999999999" y="857.1428571428573" width="30" height="30" relative="0" as="geometry" /></mxCell><mxCell edge="1" parent="1" style="edgeStyle=elbowEdgeStyle;html=1;orthogonal=1;fontFamily=Helvetica;fontSize=18;align=center;" id="iCornIn-grinding_mill" target="grinding_mill" source="iCornIn"><mxGeometry relative="1" as="geometry" /></mxCell><mxCell id="iCornIn" value="CornIn" style="rounded=1;whiteSpace=wrap;html=1;fontFamily=Helvetica;fontSize=18;align=center;" vertex="1" parent="1"><mxGeometry x="300.0000000000002" y="-767.8571428571428" width="100" height="60" as="geometry" /></mxCell><mxCell edge="1" parent="1" style="edgeStyle=elbowEdgeStyle;html=1;orthogonal=1;fontFamily=Helvetica;fontSize=18;align=center;" source="grinding_mill" target="mixing_tank" value="s1&#10;Fiber: 8916.67&#10;" id="s1"><mxGeometry relative="1" as="geometry" /></mxCell><mxCell edge="1" parent="1" style="edgeStyle=elbowEdgeStyle;html=1;orthogonal=1;fontFamily=Helvetica;fontSize=18;align=center;" id="iLimeIn-mixing_tank" target="mixing_tank" source="iLimeIn"><mxGeometry relative="1" as="geometry" /></mxCell><mxCell id="iLimeIn" value="LimeIn" style="rounded=1;whiteSpace=wrap;html=1;fontFamily=Helvetica;fontSize=18;align=center;" vertex="1" parent="1"><mxGeometry x="300.0000000000001" y="-517.8571428571428" width="100" height="60" as="geometry" /></mxCell><mxCell edge="1" parent="1" style="edgeStyle=elbowEdgeStyle;html=1;orthogonal=1;fontFamily=Helvetica;fontSize=18;align=center;" id="iAamylase-mixing_tank" target="mixing_tank" source="iAamylase"><mxGeometry relative="1" as="geometry" /></mxCell><mxCell id="iAamylase" value="Aamylase" style="rounded=1;whiteSpace=wrap;html=1;fontFamily=Helvetica;fontSize=18;align=center;" vertex="1" parent="1"><mxGeometry x="300.00000000000006" y="-267.8571428571427" width="100" height="60" as="geometry" /></mxCell><mxCell edge="1" parent="1" style="edgeStyle=elbowEdgeStyle;html=1;orthogonal=1;fontFamily=Helvetica;fontSize=18;align=center;" id="iAmmoniaIn-mixing_tank" target="mixing_tank" source="iAmmoniaIn"><mxGeometry relative="1" as="geometry" /></mxCell><mxCell id="iAmmoniaIn" value="AmmoniaIn" style="rounded=1;whiteSpace=wrap;html=1;fontFamily=Helvetica;fontSize=18;align=center;" vertex="1" parent="1"><mxGeometry x="300.0" y="-17.857142857142748" width="100" height="60" as="geometry" /></mxCell><mxCell edge="1" parent="1" style="edgeStyle=elbowEdgeStyle;html=1;orthogonal=1;fontFamily=Helvetica;fontSize=18;align=center;" source="mixing_tank" target="slurry_mix" value="s2&#10;Fiber: 8916.67&#10;" id="s2"><mxGeometry relative="1" as="geometry" /></mxCell><mxCell edge="1" parent="1" style="edgeStyle=elbowEdgeStyle;html=1;orthogonal=1;fontFamily=Helvetica;fontSize=18;align=center;" source="slurry_mix" target="liquefaction_hx" value="s3&#10;Fiber: 8916.67&#10;" id="s3"><mxGeometry relative="1" as="geometry" /></mxCell><mxCell edge="1" parent="1" style="edgeStyle=elbowEdgeStyle;html=1;orthogonal=1;fontFamily=Helvetica;fontSize=18;align=center;" source="liquefaction_hx" target="liquefaction_tank" value="s4&#10;Fiber: 8916.67&#10;" id="s4"><mxGeometry relative="1" as="geometry" /></mxCell><mxCell edge="1" parent="1" style="edgeStyle=elbowEdgeStyle;html=1;orthogonal=1;fontFamily=Helvetica;fontSize=18;align=center;" source="liquefaction_tank" target="cooling_tank" value="s5&#10;Fiber: 8916.67&#10;" id="s5"><mxGeometry relative="1" as="geometry" /></mxCell><mxCell edge="1" parent="1" style="edgeStyle=elbowEdgeStyle;html=1;orthogonal=1;fontFamily=Helvetica;fontSize=18;align=center;" source="cooling_tank" target="saccharification_tank" value="s6&#10;Fiber: 8916.67&#10;" id="s6"><mxGeometry relative="1" as="geometry" /></mxCell><mxCell edge="1" parent="1" style="edgeStyle=elbowEdgeStyle;html=1;orthogonal=1;fontFamily=Helvetica;fontSize=18;align=center;" id="iGamylase-saccharification_tank" target="saccharification_tank" source="iGamylase"><mxGeometry relative="1" as="geometry" /></mxCell><mxCell id="iGamylase" value="Gamylase" style="rounded=1;whiteSpace=wrap;html=1;fontFamily=Helvetica;fontSize=18;align=center;" vertex="1" parent="1"><mxGeometry x="299.99999999999994" y="232.14285714285725" width="100" height="60" as="geometry" /></mxCell><mxCell edge="1" parent="1" style="edgeStyle=elbowEdgeStyle;html=1;orthogonal=1;fontFamily=Helvetica;fontSize=18;align=center;" source="saccharification_tank" target="fermentation_tank" value="s7&#10;Fiber: 8916.67&#10;" id="s7"><mxGeometry relative="1" as="geometry" /></mxCell><mxCell edge="1" parent="1" style="edgeStyle=elbowEdgeStyle;html=1;orthogonal=1;fontFamily=Helvetica;fontSize=18;align=center;" id="iYeastIn-fermentation_tank" target="fermentation_tank" source="iYeastIn"><mxGeometry relative="1" as="geometry" /></mxCell><mxCell id="iYeastIn" value="YeastIn" style="rounded=1;whiteSpace=wrap;html=1;fontFamily=Helvetica;fontSize=18;align=center;" vertex="1" parent="1"><mxGeometry x="299.9999999999999" y="482.1428571428573" width="100" height="60" as="geometry" /></mxCell><mxCell edge="1" parent="1" style="edgeStyle=elbowEdgeStyle;html=1;orthogonal=1;fontFamily=Helvetica;fontSize=18;align=center;" source="fermentation_tank" target="fermentation_splitter" value="s8&#10;Fiber: 8916.67&#10;Ethanol: 22758.75&#10;" id="s8"><mxGeometry relative="1" as="geometry" /></mxCell><mxCell edge="1" parent="1" style="edgeStyle=elbowEdgeStyle;html=1;orthogonal=1;fontFamily=Helvetica;fontSize=18;align=center;" source="fermentation_splitter" target="co2_scrubber_mixer" value="s9&#10;Ethanol: 2275.88&#10;" id="s9"><mxGeometry relative="1" as="geometry" /></mxCell><mxCell edge="1" parent="1" style="edgeStyle=elbowEdgeStyle;html=1;orthogonal=1;fontFamily=Helvetica;fontSize=18;align=center;" source="fermentation_splitter" target="degasser" value="s10&#10;Fiber: 8916.67&#10;Ethanol: 20482.88&#10;" id="s10"><mxGeometry relative="1" as="geometry" /></mxCell><mxCell edge="1" parent="1" style="edgeStyle=elbowEdgeStyle;html=1;orthogonal=1;fontFamily=Helvetica;fontSize=18;align=center;" source="degasser" target="co2_scrubber_mixer" value="degasser_to_co2_scrubber&#10;Ethanol: 204.83&#10;" id="degasser_to_co2_scrubber"><mxGeometry relative="1" as="geometry" /></mxCell><mxCell edge="1" parent="1" style="edgeStyle=elbowEdgeStyle;html=1;orthogonal=1;fontFamily=Helvetica;fontSize=18;align=center;" source="degasser" target="beer_column" value="s12&#10;Fiber: 8916.67&#10;Ethanol: 20278.05&#10;" id="s12"><mxGeometry relative="1" as="geometry" /></mxCell><mxCell edge="1" parent="1" style="edgeStyle=elbowEdgeStyle;html=1;orthogonal=1;fontFamily=Helvetica;fontSize=18;align=center;" source="beer_column" target="rectifier_mixer" value="s13&#10;Ethanol: 20075.27&#10;" id="s13"><mxGeometry relative="1" as="geometry" /></mxCell><mxCell edge="1" parent="1" style="edgeStyle=elbowEdgeStyle;html=1;orthogonal=1;fontFamily=Helvetica;fontSize=18;align=center;" source="beer_column" target="centrifuge" value="s14&#10;Fiber: 8916.67&#10;Ethanol: 202.78&#10;" id="s14"><mxGeometry relative="1" as="geometry" /></mxCell><mxCell edge="1" parent="1" style="edgeStyle=elbowEdgeStyle;html=1;orthogonal=1;fontFamily=Helvetica;fontSize=18;align=center;" source="centrifuge" target="dryer" value="s17&#10;" id="s17"><mxGeometry relative="1" as="geometry" /></mxCell><mxCell edge="1" parent="1" style="edgeStyle=elbowEdgeStyle;html=1;orthogonal=1;fontFamily=Helvetica;fontSize=18;align=center;" source="centrifuge" target="thin_stillage" value="s18&#10;Fiber: 8916.67&#10;Ethanol: 202.78&#10;" id="s18"><mxGeometry relative="1" as="geometry" /></mxCell><mxCell edge="1" parent="1" style="edgeStyle=elbowEdgeStyle;html=1;orthogonal=1;fontFamily=Helvetica;fontSize=18;align=center;" source="thin_stillage" target="evaporator" value="s20&#10;Fiber: 8916.67&#10;Ethanol: 202.78&#10;" id="s20"><mxGeometry relative="1" as="geometry" /></mxCell><mxCell edge="1" parent="1" style="edgeStyle=elbowEdgeStyle;html=1;orthogonal=1;fontFamily=Helvetica;fontSize=18;align=center;" id="oevaporatorGas-evaporator" source="evaporator" target="oevaporatorGas"><mxGeometry relative="1" as="geometry" /></mxCell><mxCell id="oevaporatorGas" value="evaporatorGas" style="rounded=1;whiteSpace=wrap;html=1;fontFamily=Helvetica;fontSize=12;align=center;" vertex="1" parent="1"><mxGeometry x="2700.0" y="-49.10714285714238" width="100" height="60" as="geometry" /></mxCell><mxCell edge="1" parent="1" style="edgeStyle=elbowEdgeStyle;html=1;orthogonal=1;fontFamily=Helvetica;fontSize=18;align=center;" source="evaporator" target="ddgs_mixer" value="stillage&#10;Fiber: 8916.67&#10;Ethanol: 2.03&#10;" id="stillage"><mxGeometry relative="1" as="geometry" /></mxCell><mxCell edge="1" parent="1" style="edgeStyle=elbowEdgeStyle;html=1;orthogonal=1;fontFamily=Helvetica;fontSize=18;align=center;" source="dryer" target="ddgs_mixer" value="s19&#10;" id="s19"><mxGeometry relative="1" as="geometry" /></mxCell><mxCell edge="1" parent="1" style="edgeStyle=elbowEdgeStyle;html=1;orthogonal=1;fontFamily=Helvetica;fontSize=18;align=center;" id="oDryerWaste-dryer" source="dryer" target="oDryerWaste"><mxGeometry relative="1" as="geometry" /></mxCell><mxCell id="oDryerWaste" value="DryerWaste" style="rounded=1;whiteSpace=wrap;html=1;fontFamily=Helvetica;fontSize=12;align=center;" vertex="1" parent="1"><mxGeometry x="2400.0" y="450.8928571428576" width="100" height="60" as="geometry" /></mxCell><mxCell edge="1" parent="1" style="edgeStyle=elbowEdgeStyle;html=1;orthogonal=1;fontFamily=Helvetica;fontSize=18;align=center;" id="oDDGS-ddgs_mixer" source="ddgs_mixer" target="oDDGS"><mxGeometry relative="1" as="geometry" /></mxCell><mxCell id="oDDGS" value="DDGS" style="rounded=1;whiteSpace=wrap;html=1;fontFamily=Helvetica;fontSize=12;align=center;" vertex="1" parent="1"><mxGeometry x="2700.0" y="200.89285714285762" width="100" height="60" as="geometry" /></mxCell><mxCell edge="1" parent="1" style="edgeStyle=elbowEdgeStyle;html=1;orthogonal=1;fontFamily=Helvetica;fontSize=18;align=center;" source="stripping" target="rectifier_mixer" value="stripping_to_rectifier&#10;Ethanol: 200.71&#10;" id="stripping_to_rectifier"><mxGeometry relative="1" as="geometry" /></mxCell><mxCell edge="1" parent="1" style="edgeStyle=elbowEdgeStyle;html=1;orthogonal=1;fontFamily=Helvetica;fontSize=18;align=center;" source="rectifier_mixer" target="rectifier" value="s15&#10;Ethanol: 20274.01&#10;" id="s15"><mxGeometry relative="1" as="geometry" /></mxCell><mxCell edge="1" parent="1" style="edgeStyle=elbowEdgeStyle;html=1;orthogonal=1;fontFamily=Helvetica;fontSize=18;align=center;" id="oEthanol_out-rectifier" source="rectifier" target="oEthanol_out"><mxGeometry relative="1" as="geometry" /></mxCell><mxCell id="oEthanol_out" value="Ethanol_out" style="rounded=1;whiteSpace=wrap;html=1;fontFamily=Helvetica;fontSize=12;align=center;" vertex="1" parent="1"><mxGeometry x="2399.9999999999995" y="950.8928571428576" width="100" height="60" as="geometry" /></mxCell><mxCell edge="1" parent="1" style="edgeStyle=elbowEdgeStyle;html=1;orthogonal=1;fontFamily=Helvetica;fontSize=18;align=center;" source="rectifier" target="stripping" value="s16&#10;Ethanol: 202.74&#10;" id="s16"><mxGeometry relative="1" as="geometry" /></mxCell><mxCell edge="1" parent="1" style="edgeStyle=elbowEdgeStyle;html=1;orthogonal=1;fontFamily=Helvetica;fontSize=18;align=center;" id="oStrippingWaste-stripping" source="stripping" target="oStrippingWaste"><mxGeometry relative="1" as="geometry" /></mxCell><mxCell id="oStrippingWaste" value="StrippingWaste" style="rounded=1;whiteSpace=wrap;html=1;fontFamily=Helvetica;fontSize=12;align=center;" vertex="1" parent="1"><mxGeometry x="2700.0" y="700.8928571428577" width="100" height="60" as="geometry" /></mxCell><mxCell edge="1" parent="1" style="edgeStyle=elbowEdgeStyle;html=1;orthogonal=1;fontFamily=Helvetica;fontSize=18;align=center;" id="iWaterIn-co2_scrubber_mixer" target="co2_scrubber_mixer" source="iWaterIn"><mxGeometry relative="1" as="geometry" /></mxCell><mxCell id="iWaterIn" value="WaterIn" style="rounded=1;whiteSpace=wrap;html=1;fontFamily=Helvetica;fontSize=18;align=center;" vertex="1" parent="1"><mxGeometry x="299.9999999999998" y="857.1428571428572" width="100" height="60" as="geometry" /></mxCell><mxCell edge="1" parent="1" style="edgeStyle=elbowEdgeStyle;html=1;orthogonal=1;fontFamily=Helvetica;fontSize=18;align=center;" source="co2_scrubber_mixer" target="co2_scrubber" value="s11&#10;Ethanol: 2480.70&#10;" id="s11"><mxGeometry relative="1" as="geometry" /></mxCell><mxCell edge="1" parent="1" style="edgeStyle=elbowEdgeStyle;html=1;orthogonal=1;fontFamily=Helvetica;fontSize=18;align=center;" id="oCO2_out-co2_scrubber" source="co2_scrubber" target="oCO2_out"><mxGeometry relative="1" as="geometry" /></mxCell><mxCell id="oCO2_out" value="CO2_out" style="rounded=1;whiteSpace=wrap;html=1;fontFamily=Helvetica;fontSize=12;align=center;" vertex="1" parent="1"><mxGeometry x="1199.9999999999998" y="732.1428571428575" width="100" height="60" as="geometry" /></mxCell><mxCell edge="1" parent="1" style="edgeStyle=elbowEdgeStyle;html=1;orthogonal=1;fontFamily=Helvetica;fontSize=18;align=center;" id="oScrubberWaste-co2_scrubber" source="co2_scrubber" target="oScrubberWaste"><mxGeometry relative="1" as="geometry" /></mxCell><mxCell id="oScrubberWaste" value="ScrubberWaste" style="rounded=1;whiteSpace=wrap;html=1;fontFamily=Helvetica;fontSize=12;align=center;" vertex="1" parent="1"><mxGeometry x="1199.9999999999998" y="982.1428571428575" width="100" height="60" as="geometry" /></mxCell></root></mxGraphModel>